{"title":"The.Legend.of.the.Guradians.2010.720p.BRRip.H264.AC3.5.1.ICF","uid":6028619,"size":2358673403,"categoryP":"video","categoryS":"hd___movies","magnet":"?xt=urn:btih:d6813722cfec6736a776c5441806a0c214d1c276&amp;dn=The.Legend.of.the.Guradians.2010.720p.BRRip.H264.AC3.5.1.ICF&amp;tr=udp%3A%2F%2Ftracker.openbittorrent.com%3A80&amp;tr=udp%3A%2F%2Fopen.demonii.com%3A1337&amp;tr=udp%3A%2F%2Ftracker.coppersurfer.tk%3A6969&amp;tr=udp%3A%2F%2Fexodus.desync.com%3A6969","seeders":0,"leechers":1,"uploader":"RajMahal","files":1,"time":1291995268,"description":"General\n\nFormat                           : Matroska\nFile size                        : 2.20 GiB\nDuration                         : 1h 36mn\nOverall bit rate                 : 3 249 Kbps\nEncoded date                     : UTC 2010-12-10 14:23:53\nWriting application              : mkvmerge v4.0.0 ('The Stars were mine') built on Jun  6 2010 16:18:42\nWriting library                  : libebml v1.0.0 + libmatroska v1.0.0\n\n\nSource : CBGB-BOZX\n\nEncoder : RajMahal\n\nVideo\n\nID                               : 1\nFormat                           : AVC\nFormat/Info                      : Advanced Video Codec\nFormat profile                   : &lt;a class=&quot;__cf_email__&quot; href=&quot;/cdn-cgi/l/email-protection&quot; data-cfemail=&quot;b1f9d8d6d9f1fd859f80&quot;&gt;[email&amp;#160;protected]&lt;/a&gt;&lt;script cf-hash='f9e31' type=&quot;text/javascript&quot;&gt;\n/* &lt;![CDATA[ */!function(){try{var t=&quot;currentScript&quot;in document?document.currentScript:function(){for(var t=document.getElementsByTagName(&quot;script&quot;),e=t.length;e--;)if(t[e].getAttribute(&quot;cf-hash&quot;))return t[e]}();if(t&amp;&amp;t.previousSibling){var e,r,n,i,c=t.previousSibling,a=c.getAttribute(&quot;data-cfemail&quot;);if(a){for(e=&quot;&quot;,r=parseInt(a.substr(0,2),16),n=2;a.length-n;n+=2)i=parseInt(a.substr(n,2),16)^r,e+=String.fromCharCode(i);e=document.createTextNode(e),c.parentNode.replaceChild(e,c)}}}catch(u){}}();/* ]]&gt; */&lt;/script&gt;\nFormat settings, CABAC           : Yes\nFormat settings, ReFrames        : 3 frames\nCodec ID                         : V_MPEG4/ISO/AVC\nDuration                         : 1h 36mn\nBit rate mode                    : Variable\nBit rate                         : 2 865 Kbps\nMaximum bit rate                 : 8 000 Kbps\nWidth                            : 1 280 pixels\nHeight                           : 544 pixels\nDisplay aspect ratio             : 2.35:1\nFrame rate                       : 23.976 fps\nColor space                      : YUV\nChroma subsampling               : 4:2:0\nBit depth                        : 8 bits\nScan type                        : Progressive\nBits/(Pixel*Frame)               : 0.172\nStream size                      : 1.89 GiB (86%)\n           \n\nAudio\n\nID                               : 2\nFormat                           : AC-3\nFormat/Info                      : Audio Coding 3\nMode extension                   : CM (complete main)\nCodec ID                         : A_AC3\nDuration                         : 1h 36mn\nBit rate mode                    : Constant\nBit rate                         : 384 Kbps\nChannel(s)                       : 6 channels\nChannel positions                : Front: L C R, Side: L R, LFE\nSampling rate                    : 48.0 KHz\nBit depth                        : 16 bits\nCompression mode                 : Lossy\nStream size                      : 266 MiB (12%)\n\nScreenshots:\n\n &lt;a href=&quot;\nhttp://img688.imageshack.us/img688/9908/vlcsnap2010121015h29m25.png&quot; rel=&quot;nofollow&quot; target=&quot;_NEW&quot;&gt;\nhttp://img688.imageshack.us/img688/9908/vlcsnap2010121015h29m25.png&lt;/a&gt; &lt;a href=&quot;\nhttp://img219.imageshack.us/img219/4858/vlcsnap2010121015h29m32.png&quot; rel=&quot;nofollow&quot; target=&quot;_NEW&quot;&gt;\nhttp://img219.imageshack.us/img219/4858/vlcsnap2010121015h29m32.png&lt;/a&gt; &lt;a href=&quot;\nhttp://img716.imageshack.us/img716/4773/vlcsnap2010121015h29m46.png&quot; rel=&quot;nofollow&quot; target=&quot;_NEW&quot;&gt;\nhttp://img716.imageshack.us/img716/4773/vlcsnap2010121015h29m46.png&lt;/a&gt; &lt;a href=&quot;\nhttp://img573.imageshack.us/img573/3567/vlcsnap2010121015h30m02.png&quot; rel=&quot;nofollow&quot; target=&quot;_NEW&quot;&gt;\nhttp://img573.imageshack.us/img573/3567/vlcsnap2010121015h30m02.png&lt;/a&gt; &lt;a href=&quot;\nhttp://img220.imageshack.us/img220/8154/vlcsnap2010121015h30m57.png&quot; rel=&quot;nofollow&quot; target=&quot;_NEW&quot;&gt;\nhttp://img220.imageshack.us/img220/8154/vlcsnap2010121015h30m57.png&lt;/a&gt;\n","torrent":{"xt":"urn:btih:d6813722cfec6736a776c5441806a0c214d1c276","amp;dn":"The.Legend.of.the.Guradians.2010.720p.BRRip.H264.AC3.5.1.ICF","amp;tr":["udp%3A%2F%2Ftracker.openbittorrent.com%3A80","udp%3A%2F%2Fopen.demonii.com%3A1337","udp%3A%2F%2Ftracker.coppersurfer.tk%3A6969","udp%3A%2F%2Fexodus.desync.com%3A6969"],"infoHash":"d6813722cfec6736a776c5441806a0c214d1c276","infoHashBuffer":{"type":"Buffer","data":[214,129,55,34,207,236,103,54,167,118,197,68,24,6,160,194,20,209,194,118]},"announce":[],"urlList":[]}}